<?xml version="1.0" encoding="UTF-8" standalone="no"?>
<!DOCTYPE svg PUBLIC "-//W3C//DTD SVG 1.1//EN" "http://www.w3.org/Graphics/SVG/1.1/DTD/svg11.dtd">
<svg xmlns:xl="http://www.w3.org/1999/xlink" version="1.1" xmlns="http://www.w3.org/2000/svg" xmlns:dc="http://purl.org/dc/elements/1.1/" viewBox="196.37638 221.46046 247.02324 247.02324" width="247.02324" height="247.02324">
  <defs/>
  <g id="Canvas_1" fill="none" stroke="none" stroke-opacity="1" stroke-dasharray="none" fill-opacity="1">
    <title>Canvas 1</title>
    <g id="Canvas_1_Layer_1">
      <title>Layer 1</title>
      <g id="Group_2170">
        <g id="Graphic_2166"/>
        <g id="Group_2003">
          <g id="Graphic_2002">
            <rect x="374.644" y="372.394" width="64.8" height="34.6" stroke="black" stroke-linecap="round" stroke-linejoin="round" stroke-width="1.5"/>
          </g>
          <g id="Graphic_2001">
            <rect x="201.444" y="372.075" width="64.8" height="34.6" stroke="black" stroke-linecap="round" stroke-linejoin="round" stroke-width="1.5"/>
          </g>
          <g id="Graphic_2000">
            <rect x="317.528" y="303.54144" width="92.047" height="34.6" stroke="black" stroke-linecap="round" stroke-linejoin="round" stroke-width="1.5"/>
          </g>
          <g id="Graphic_1999">
            <rect x="262.844" y="237" width="64.8" height="34.6" stroke="black" stroke-linecap="round" stroke-linejoin="round" stroke-width="1.5"/>
          </g>
          <g id="Group_1943">
            <title>Group_1667</title>
            <g id="Group_1994">
              <title>Group_1169</title>
              <g id="Group_1995">
                <title>Group_1170</title>
                <g id="Group_1996">
                  <title>Group_1171</title>
                  <g id="Group_1997">
                    <title>Graphic_1172</title>
                    <g id="Graphic_1998">
                      <path d="M 209.01967 445.89714 C 207.08985 445.89714 205.43373 445.3894 204.05086 444.38157 C 202.66408 443.37373 201.4259 441.8503 200.332 439.81895 L 202.76955 438.33476 C 203.62114 439.90895 204.55467 441.09635 205.56643 441.89717 C 206.58604 442.7019 207.6525 443.10025 208.7695 443.10025 C 209.75795 443.10025 210.66032 442.88147 211.47269 442.4441 C 212.28528 441.9987 212.92593 441.4049 213.39466 440.6627 C 213.86339 439.91287 214.09764 439.1003 214.09764 438.22537 C 214.09764 437.3424 213.8477 436.51826 213.3478 435.75644 C 212.85555 434.99877 212.1445 434.2097 211.20705 433.3971 C 210.27745 432.58475 208.65249 431.24874 206.33217 429.38146 C 205.28903 428.5495 204.48058 427.8151 203.91031 427.1784 C 203.3359 426.54557 202.90248 425.862 202.6133 425.13155 C 202.32044 424.39327 202.17574 423.50267 202.17574 422.45975 C 202.17574 421.17843 202.4806 420.03004 203.09772 419.0065 C 203.71092 417.97536 204.55075 417.17454 205.61328 416.60034 C 206.67582 416.03007 207.84774 415.7409 209.12906 415.7409 C 210.73048 415.7409 212.11334 416.1471 213.26958 416.9597 C 214.43366 417.77227 215.55873 418.9246 216.64458 420.4127 L 214.3321 422.2253 C 213.715 421.42445 213.16803 420.7838 212.69146 420.3035 C 212.21097 419.82673 211.66794 419.44016 211.0665 419.14707 C 210.4727 418.84635 209.80088 418.69403 209.05083 418.69403 C 208.24608 418.69403 207.55465 418.86204 206.97283 419.1939 C 206.38687 419.52994 205.94146 419.97535 205.62897 420.53777 C 205.32434 421.1002 205.17594 421.70185 205.17594 422.33467 C 205.17594 423.24096 205.44157 424.09255 205.97262 424.8816 C 206.50389 425.6628 207.27355 426.42834 208.2853 427.1784 C 210.418 428.7214 212.0665 430.00273 213.22273 431.0221 C 214.3868 432.03387 215.32426 433.12757 216.0353 434.3034 C 216.7422 435.4714 217.09784 436.7643 217.09784 438.1785 C 217.09784 439.5143 216.7422 440.7721 216.0353 441.9597 C 215.32426 443.1471 214.35565 444.10025 213.12903 444.81913 C 211.89848 445.5378 210.5274 445.89714 209.01967 445.89714" fill="black"/>
                    </g>
                  </g>
                </g>
              </g>
            </g>
            <g id="Group_1989">
              <title>Group_1165</title>
              <g id="Group_1990">
                <title>Group_1166</title>
                <g id="Group_1991">
                  <title>Group_1167</title>
                  <g id="Group_1992">
                    <title>Graphic_1168</title>
                    <g id="Graphic_1993">
                      <path d="M 236.93512 423.94394 L 239.7634 423.94394 L 227.09144 452.94415 L 224.21633 452.94415 L 228.3259 443.7409 L 219.5757 423.94394 L 222.37258 423.94394 L 229.73208 440.61585 L 236.93512 423.94394" fill="black"/>
                    </g>
                  </g>
                </g>
              </g>
            </g>
            <g id="Group_1984">
              <title>Group_1161</title>
              <g id="Group_1985">
                <title>Group_1162</title>
                <g id="Group_1986">
                  <title>Group_1163</title>
                  <g id="Group_1987">
                    <title>Graphic_1164</title>
                    <g id="Graphic_1988">
                      <path d="M 246.16996 423.94394 L 246.16996 427.7408 C 248.37696 424.83476 251.02937 423.3815 254.12305 423.3815 C 255.69332 423.3815 257.07618 423.7526 258.2638 424.4909 C 259.4512 425.22133 260.37317 426.3268 261.0293 427.80335 C 261.68564 429.28384 262.0136 431.10034 262.0136 433.25657 L 262.0136 445.17847 L 259.29494 445.17847 L 259.29494 433.6159 C 259.29494 431.0339 258.84583 429.09644 257.9513 427.80335 C 257.05286 426.5144 255.60746 425.8659 253.60747 425.8659 C 252.30284 425.8659 251.08407 426.22524 249.95115 426.94413 C 248.81453 427.6628 247.89647 428.70965 247.20112 430.08466 C 246.5136 431.45183 246.16996 433.0807 246.16996 434.97523 L 246.16996 445.17847 L 243.4511 445.17847 L 243.4511 423.94394 L 246.16996 423.94394" fill="black"/>
                    </g>
                  </g>
                </g>
              </g>
            </g>
            <g id="Group_1979">
              <title>Group_1157</title>
              <g id="Group_1980">
                <title>Group_1158</title>
                <g id="Group_1981">
                  <title>Group_1159</title>
                  <g id="Group_1982">
                    <title>Graphic_1160</title>
                    <g id="Graphic_1983">
                      <path d="M 270.29007 426.33464 L 266.52435 426.33464 L 266.52435 423.94394 L 270.29007 423.94394 L 270.29007 416.02223 L 273.00872 416.02223 L 273.00872 423.94394 L 277.36824 423.94394 L 277.36824 426.33464 L 273.00872 426.33464 L 273.00872 445.17847 L 270.29007 445.17847 L 270.29007 426.33464" fill="black"/>
                    </g>
                  </g>
                </g>
              </g>
            </g>
            <g id="Group_1974">
              <title>Group_1153</title>
              <g id="Group_1975">
                <title>Group_1154</title>
                <g id="Group_1976">
                  <title>Group_1155</title>
                  <g id="Group_1977">
                    <title>Graphic_1156</title>
                    <g id="Graphic_1978">
                      <path d="M 291.2862 445.69404 C 289.25484 445.69404 287.4111 445.1863 285.75497 444.1785 C 284.10648 443.17064 282.80577 441.80347 281.8487 440.0846 C 280.88772 438.3581 280.41115 436.491 280.41115 434.4908 C 280.41115 432.49083 280.89557 430.6471 281.8644 428.9596 C 282.833 427.26446 284.15333 425.90884 285.833 424.8971 C 287.5205 423.88946 289.36423 423.3815 291.3642 423.3815 C 293.09094 423.3815 294.6769 423.75653 296.11423 424.5066 C 297.55964 425.2488 298.80565 426.35033 299.8488 427.81904 L 299.8488 423.94394 L 302.5206 423.94394 L 302.5206 445.17847 L 299.8488 445.17847 L 299.8488 441.53783 C 298.70018 442.9246 297.4034 443.96754 295.958 444.6629 C 294.52065 445.3504 292.96194 445.69404 291.2862 445.69404 M 291.56753 443.22533 C 293.03624 443.22533 294.4189 442.8736 295.72374 442.1628 C 297.02445 441.4557 298.0713 440.4557 298.86427 439.1628 C 299.65332 437.87366 300.05188 436.3738 300.05188 434.66275 C 300.05188 433.0378 299.67686 431.5769 298.9268 430.27207 C 298.17676 428.9596 297.16108 427.9245 295.87998 427.1627 C 294.59866 426.405 293.16895 426.02215 291.5987 426.02215 C 290.0245 426.02215 288.59087 426.4207 287.3017 427.20977 C 286.00884 427.991 285.00493 429.0378 284.28626 430.3503 C 283.56737 431.65493 283.20803 433.06503 283.20803 434.58474 C 283.20803 436.10815 283.5713 437.53 284.30173 438.85034 C 285.04 440.1628 286.04392 441.22143 287.3174 442.02225 C 288.5987 442.8268 290.01273 443.22533 291.56753 443.22533" fill="black"/>
                    </g>
                  </g>
                </g>
              </g>
            </g>
            <g id="Group_1969">
              <title>Group_1149</title>
              <g id="Group_1970">
                <title>Group_1150</title>
                <g id="Group_1971">
                  <title>Group_1151</title>
                  <g id="Group_1972">
                    <title>Graphic_1152</title>
                    <g id="Graphic_1973">
                      <path d="M 309.5966 423.94394 L 315.2372 431.77216 L 320.87783 423.94394 L 324.12775 423.94394 L 316.87786 434.0221 L 325.03404 445.17847 L 321.72158 445.17847 L 315.2372 436.25655 L 308.84654 445.17847 L 305.56524 445.17847 L 313.59656 434.0221 L 306.3153 423.94394 L 309.5966 423.94394" fill="black"/>
                    </g>
                  </g>
                </g>
              </g>
            </g>
            <g id="Group_1964">
              <title>Group_1145</title>
              <g id="Group_1965">
                <title>Group_1146</title>
                <g id="Group_1966">
                  <title>Group_1147</title>
                  <g id="Group_1967">
                    <title>Graphic_1148</title>
                    <g id="Graphic_1968">
                      <path d="M 334.4846 416.45957 C 336.4299 416.45957 338.0627 416.76443 339.3752 417.36587 C 340.6955 417.95967 341.6759 418.7799 342.3126 419.8191 C 342.9572 420.86203 343.28145 422.0769 343.28145 423.45974 C 343.28145 424.74084 342.9729 425.9049 342.35947 426.94413 C 341.74235 427.9753 340.8282 428.8269 339.60944 429.49086 C 343.629 430.85803 345.64077 433.34243 345.64077 436.94406 C 345.64077 438.40493 345.26967 439.76426 344.5314 441.02226 C 343.80095 442.2722 342.72665 443.28003 341.31263 444.0377 C 339.90645 444.7995 338.2268 445.17847 336.2815 445.17847 L 328.40643 445.17847 L 328.40643 416.45957 L 334.4846 416.45957 M 333.2033 428.49086 C 335.44146 428.49086 337.17995 428.0847 338.42204 427.2721 C 339.6602 426.4597 340.28147 425.19017 340.28147 423.45974 C 340.28147 422.1784 339.81667 421.1588 338.89077 420.3972 C 337.9727 419.63933 336.6916 419.25646 335.04704 419.25646 L 331.28132 419.25646 L 331.28132 428.49086 L 333.2033 428.49086 M 335.71886 442.3816 C 337.26973 442.3816 338.5626 442.13927 339.59397 441.6472 C 340.63296 441.1471 341.3987 440.48707 341.89074 439.6627 C 342.39085 438.83073 342.6408 437.9362 342.6408 436.9752 C 342.6408 435.78 342.3126 434.75253 341.6565 433.89723 C 341.008 433.04563 340.05485 432.39713 338.79707 431.95957 C 337.54713 431.5222 336.0392 431.30344 334.2813 431.30344 L 331.28132 431.30344 L 331.28132 442.3816 L 335.71886 442.3816" fill="#00bf63"/>
                    </g>
                  </g>
                </g>
              </g>
            </g>
            <g id="Group_1959">
              <title>Group_1141</title>
              <g id="Group_1960">
                <title>Group_1142</title>
                <g id="Group_1961">
                  <title>Group_1143</title>
                  <g id="Group_1962">
                    <title>Graphic_1144</title>
                    <g id="Graphic_1963">
                      <path d="M 360.7217 445.69404 C 358.69036 445.69404 356.8466 445.1863 355.1905 444.1785 C 353.542 443.17064 352.24107 441.80347 351.28422 440.0846 C 350.32324 438.3581 349.84667 436.491 349.84667 434.4908 C 349.84667 432.49083 350.3311 430.6471 351.2997 428.9596 C 352.26853 427.26446 353.58885 425.90884 355.2685 424.8971 C 356.956 423.88946 358.79975 423.3815 360.80017 423.3815 C 362.526 423.3815 364.1124 423.75653 365.55062 424.5066 C 366.99537 425.2488 368.2418 426.35033 369.28343 427.81904 L 369.28343 423.94394 L 371.955 423.94394 L 371.955 445.17847 L 369.28343 445.17847 L 369.28343 441.53783 C 368.13504 442.9246 366.83847 443.96754 365.39373 444.6629 C 363.9555 445.3504 362.39745 445.69404 360.7217 445.69404 M 361.00283 443.22533 C 362.47154 443.22533 363.85528 442.8736 365.1584 442.1628 C 366.4593 441.4557 367.50746 440.4557 368.30066 439.1628 C 369.0895 437.87366 369.48827 436.3738 369.48827 434.66275 C 369.48827 433.0378 369.1113 431.5769 368.36167 430.27207 C 367.61206 428.9596 366.5966 427.9245 365.3153 427.1627 C 364.03396 426.405 362.60447 426.02215 361.03333 426.02215 C 359.46 426.02215 358.0264 426.4207 356.73722 427.20977 C 355.44436 427.991 354.44044 429.0378 353.72156 430.3503 C 353.0029 431.65493 352.64355 433.06503 352.64355 434.58474 C 352.64355 436.10815 353.0068 437.53 353.73724 438.85034 C 354.47553 440.1628 355.47944 441.22143 356.7529 442.02225 C 358.03423 442.8268 359.4491 443.22533 361.00283 443.22533" fill="#00bf63"/>
                    </g>
                  </g>
                </g>
              </g>
            </g>
            <g id="Group_1954">
              <title>Group_1137</title>
              <g id="Group_1955">
                <title>Group_1138</title>
                <g id="Group_1956">
                  <title>Group_1139</title>
                  <g id="Group_1957">
                    <title>Graphic_1140</title>
                    <g id="Graphic_1958">
                      <path d="M 387.2044 445.69404 C 384.1297 445.69404 381.8024 444.78775 380.22037 442.9754 C 378.634 441.1628 377.84515 438.4871 377.84515 434.94407 L 377.84515 423.94394 L 380.7194 423.94394 L 380.7194 436.05346 C 380.7194 438.3777 381.2903 440.12773 382.4387 441.30336 C 383.58274 442.47136 385.1735 443.0534 387.2044 443.0534 C 388.60994 443.0534 389.791 442.76816 390.7498 442.19396 C 391.71952 441.6237 392.443 440.8268 392.9224 439.8035 C 393.3996 438.7721 393.6415 437.59256 393.6415 436.25655 L 393.6415 423.94394 L 396.51574 423.94394 L 396.51574 434.94407 C 396.51574 438.51824 395.7269 441.20574 394.15795 443.00655 C 392.58245 444.7995 390.26606 445.69404 387.2044 445.69404" fill="#00bf63"/>
                    </g>
                  </g>
                </g>
              </g>
            </g>
            <g id="Group_1949">
              <title>Group_1133</title>
              <g id="Group_1950">
                <title>Group_1134</title>
                <g id="Group_1951">
                  <title>Group_1135</title>
                  <g id="Group_1952">
                    <title>Graphic_1136</title>
                    <g id="Graphic_1953">
                      <path d="M 412.59973 445.69404 C 410.3073 445.69404 408.3265 445.19416 406.66166 444.19395 C 404.99465 443.19395 403.7177 441.8503 402.83297 440.1628 C 401.95915 438.46747 401.52115 436.6159 401.52115 434.6159 C 401.52115 432.6706 401.9744 430.8347 402.8809 429.11583 C 403.7874 427.39717 405.0731 426.0143 406.7401 424.9596 C 408.40495 423.90885 410.30295 423.3815 412.4276 423.3815 C 414.4912 423.3815 416.3565 423.862 418.0366 424.81907 C 419.71234 425.78005 421.0285 427.1119 421.9895 428.81904 C 422.9483 430.53007 423.4277 432.45183 423.4277 434.58474 L 423.4277 434.77214 L 404.3191 434.77214 C 404.36924 436.40887 404.7484 437.85035 405.4588 439.1003 C 406.167 440.3502 407.13017 441.3269 408.35047 442.02225 C 409.5773 442.70976 410.99373 443.0534 412.59973 443.0534 C 414.4825 443.0534 416.0253 442.61584 417.2238 441.7409 C 418.431 440.85817 419.4988 439.6551 420.4271 438.13145 L 422.7086 439.33476 C 421.6779 441.33474 420.29416 442.89716 418.5683 444.02223 C 416.849 445.13946 414.8573 445.69404 412.59973 445.69404 M 420.4271 432.38144 C 419.8954 430.2799 418.91696 428.69396 417.48965 427.63164 C 416.06015 426.56126 414.3888 426.02215 412.4755 426.02215 C 410.5252 426.02215 408.88 426.5495 407.53767 427.60026 C 406.19316 428.65495 405.21256 430.24875 404.60023 432.38144 L 420.4271 432.38144" fill="#00bf63"/>
                    </g>
                  </g>
                </g>
              </g>
            </g>
            <g id="Group_1944">
              <title>Group_1129</title>
              <g id="Group_1945">
                <title>Group_1130</title>
                <g id="Group_1946">
                  <title>Group_1131</title>
                  <g id="Group_1947">
                    <title>Graphic_1132</title>
                    <g id="Graphic_1948">
                      <path d="M 431.39453 423.94394 L 431.39453 427.02214 C 432.2139 425.8269 433.07463 424.9206 433.9724 424.3035 C 434.86585 423.69007 435.83556 423.3815 436.87935 423.3815 C 437.37836 423.3815 437.8207 423.44405 438.2064 423.56913 C 438.58995 423.68615 438.9604 423.862 439.3156 424.1002 L 437.8774 426.41287 C 437.3348 426.1551 436.851 426.02215 436.4261 426.02215 C 435.4651 426.02215 434.60436 426.37756 433.84603 427.0847 C 433.0855 427.78396 432.48845 428.7722 432.05045 430.0535 C 431.61245 431.3346 431.39453 432.8033 431.39453 434.45966 L 431.39453 445.17847 L 428.675 445.17847 L 428.675 423.94394 L 431.39453 423.94394" fill="#00bf63"/>
                    </g>
                  </g>
                </g>
              </g>
            </g>
          </g>
          <g id="Group_1938">
            <title>Group_1241</title>
            <g id="Group_1939">
              <title>Group_1242</title>
              <g id="Group_1940">
                <title>Group_1243</title>
                <g id="Group_1941">
                  <title>Graphic_1244</title>
                  <g id="Graphic_1942">
                    <path d="M 232.055 385.616 C 232.617 385.616 233.094 385.721 233.492 385.928 C 233.887 386.139 234.184 386.428 234.383 386.803 C 234.59 387.171 234.696 387.596 234.696 388.085 C 234.696 388.577 234.59 389.006 234.383 389.381 C 234.184 389.749 233.887 390.034 233.492 390.241 C 233.094 390.452 232.617 390.553 232.055 390.553 L 230.571 390.553 L 230.571 393.475 L 229.008 393.475 L 229.008 385.616 L 232.055 385.616 M 231.836 389.319 C 232.699 389.319 233.133 388.909 233.133 388.085 C 233.133 387.264 232.699 386.85 231.836 386.85 L 230.571 386.85 L 230.571 389.319 L 231.836 389.319" fill="black"/>
                  </g>
                </g>
              </g>
            </g>
          </g>
          <g id="Group_1933">
            <title>Group_1237</title>
            <g id="Group_1934">
              <title>Group_1238</title>
              <g id="Group_1935">
                <title>Group_1239</title>
                <g id="Group_1936">
                  <title>Graphic_1240</title>
                  <g id="Graphic_1937">
                    <path d="M 236.022 393.475 L 236.022 387.553 L 237.46 387.553 L 237.46 388.428 L 237.569 388.46 C 237.714 388.128 237.901 387.881 238.132 387.725 C 238.37 387.569 238.655 387.491 238.991 387.491 C 239.323 387.491 239.577 387.549 239.757 387.663 L 239.507 388.96 L 239.397 388.975 C 239.292 388.936 239.194 388.909 239.101 388.897 C 239.015 388.878 238.913 388.866 238.788 388.866 C 238.37 388.866 238.054 389.014 237.835 389.303 C 237.616 389.596 237.507 390.065 237.507 390.71 L 237.507 393.475 L 236.022 393.475" fill="black"/>
                  </g>
                </g>
              </g>
            </g>
          </g>
          <g id="Group_1928">
            <title>Group_1229</title>
            <g id="Group_1929">
              <title>Group_1230</title>
              <g id="Group_1930">
                <title>Group_1231</title>
                <g id="Group_1931">
                  <title>Graphic_1232</title>
                  <g id="Graphic_1932">
                    <path d="M 405.208 393.475 L 403.693 393.475 L 403.693 385.616 L 405.474 385.616 L 408.63 390.678 L 408.771 390.663 L 408.771 385.616 L 410.255 385.616 L 410.255 393.475 L 408.677 393.475 L 405.333 388.069 L 405.208 388.1 L 405.208 393.475" fill="black"/>
                  </g>
                </g>
              </g>
            </g>
          </g>
          <g id="Group_1923">
            <title>Group_1221</title>
            <g id="Group_1924">
              <title>Group_1222</title>
              <g id="Group_1925">
                <title>Group_1223</title>
                <g id="Group_1926">
                  <title>Graphic_1224</title>
                  <g id="Graphic_1927">
                    <path d="M 355.36 324.107 L 353.844 324.107 L 353.844 316.247 L 355.625 316.247 L 358.781 321.31 L 358.922 321.294 L 358.922 316.247 L 360.406 316.247 L 360.406 324.107 L 358.828 324.107 L 355.485 318.7 L 355.36 318.732 L 355.36 324.107" fill="black"/>
                  </g>
                </g>
              </g>
            </g>
          </g>
          <g id="Group_1918">
            <title>Group_1217</title>
            <g id="Group_1919">
              <title>Group_1218</title>
              <g id="Group_1920">
                <title>Group_1219</title>
                <g id="Group_1921">
                  <title>Graphic_1220</title>
                  <g id="Graphic_1922">
                    <path d="M 365.245 324.216 C 364.588 324.216 364.018 324.071 363.541 323.778 C 363.061 323.478 362.69 323.025 362.432 322.419 C 362.182 321.818 362.057 321.071 362.057 320.185 C 362.057 319.29 362.206 318.54 362.51 317.935 C 362.823 317.333 363.252 316.884 363.807 316.591 C 364.37 316.29 365.014 316.138 365.745 316.138 C 366.495 316.138 367.135 316.278 367.666 316.56 C 368.198 316.841 368.565 317.259 368.776 317.81 L 367.651 318.497 L 367.51 318.482 C 367.354 318.138 367.127 317.888 366.838 317.732 C 366.545 317.568 366.182 317.482 365.745 317.482 C 365.065 317.482 364.545 317.696 364.182 318.122 C 363.827 318.552 363.651 319.239 363.651 320.185 C 363.651 321.134 363.815 321.821 364.151 322.247 C 364.483 322.677 364.979 322.888 365.635 322.888 C 366.198 322.888 366.612 322.763 366.885 322.513 C 367.155 322.255 367.291 321.872 367.291 321.372 L 367.291 321.028 L 365.432 321.028 L 365.432 319.778 L 368.838 319.778 L 368.838 324.107 L 367.354 324.107 L 367.354 323.06 L 367.245 323.044 C 367.077 323.419 366.827 323.712 366.495 323.919 C 366.17 324.114 365.752 324.216 365.245 324.216" fill="black"/>
                  </g>
                </g>
              </g>
            </g>
          </g>
          <g id="Group_1913">
            <title>Group_1213</title>
            <g id="Group_1914">
              <title>Group_1214</title>
              <g id="Group_1915">
                <title>Group_1215</title>
                <g id="Group_1916">
                  <title>Graphic_1216</title>
                  <g id="Graphic_1917">
                    <path d="M 370.477 324.107 L 370.477 318.185 L 371.914 318.185 L 371.914 319.06 L 372.023 319.091 C 372.168 318.759 372.355 318.513 372.586 318.357 C 372.824 318.2 373.109 318.122 373.445 318.122 C 373.777 318.122 374.031 318.181 374.211 318.294 L 373.961 319.591 L 373.852 319.607 C 373.746 319.568 373.648 319.54 373.555 319.528 C 373.469 319.509 373.367 319.497 373.242 319.497 C 372.824 319.497 372.508 319.646 372.289 319.935 C 372.07 320.228 371.961 320.696 371.961 321.341 L 371.961 324.107 L 370.477 324.107" fill="black"/>
                  </g>
                </g>
              </g>
            </g>
          </g>
          <g id="Group_1908">
            <title>Group_1205</title>
            <g id="Group_1909">
              <title>Group_1206</title>
              <g id="Group_1910">
                <title>Group_1207</title>
                <g id="Group_1911">
                  <title>Graphic_1208</title>
                  <g id="Graphic_1912">
                    <path d="M 286.854 250.098 C 287.417 250.098 287.893 250.204 288.292 250.411 C 288.686 250.622 288.983 250.911 289.182 251.286 C 289.389 251.653 289.495 252.079 289.495 252.567 C 289.495 253.059 289.389 253.489 289.182 253.864 C 288.983 254.231 288.686 254.516 288.292 254.723 C 287.893 254.934 287.417 255.036 286.854 255.036 L 285.37 255.036 L 285.37 257.958 L 283.807 257.958 L 283.807 250.098 L 286.854 250.098 M 286.635 253.801 C 287.499 253.801 287.932 253.391 287.932 252.567 C 287.932 251.747 287.499 251.333 286.635 251.333 L 285.37 251.333 L 285.37 253.801 L 286.635 253.801" fill="black"/>
                  </g>
                </g>
              </g>
            </g>
          </g>
          <g id="Group_1903">
            <title>Group_1201</title>
            <g id="Group_1904">
              <title>Group_1202</title>
              <g id="Group_1905">
                <title>Group_1203</title>
                <g id="Group_1906">
                  <title>Graphic_1204</title>
                  <g id="Graphic_1907">
                    <path d="M 290.822 257.958 L 290.822 252.036 L 292.259 252.036 L 292.259 252.911 L 292.369 252.942 C 292.513 252.61 292.701 252.364 292.931 252.208 C 293.169 252.051 293.454 251.973 293.79 251.973 C 294.122 251.973 294.376 252.032 294.556 252.145 L 294.306 253.442 L 294.197 253.458 C 294.091 253.419 293.994 253.391 293.9 253.379 C 293.814 253.36 293.712 253.348 293.587 253.348 C 293.169 253.348 292.853 253.497 292.634 253.786 C 292.415 254.079 292.306 254.547 292.306 255.192 L 292.306 257.958 L 290.822 257.958" fill="black"/>
                  </g>
                </g>
              </g>
            </g>
          </g>
          <g id="Group_1898">
            <title>Group_1197</title>
            <g id="Group_1899">
              <title>Group_1198</title>
              <g id="Group_1900">
                <title>Group_1199</title>
                <g id="Group_1901">
                  <title>Graphic_1200</title>
                  <g id="Graphic_1902">
                    <path d="M 298.417 258.067 C 297.761 258.067 297.191 257.922 296.714 257.629 C 296.234 257.329 295.863 256.876 295.605 256.27 C 295.355 255.669 295.23 254.922 295.23 254.036 C 295.23 253.141 295.378 252.391 295.683 251.786 C 295.996 251.184 296.425 250.735 296.98 250.442 C 297.542 250.141 298.187 249.989 298.917 249.989 C 299.667 249.989 300.308 250.129 300.839 250.411 C 301.371 250.692 301.738 251.11 301.949 251.661 L 300.824 252.348 L 300.683 252.333 C 300.527 251.989 300.3 251.739 300.011 251.583 C 299.718 251.419 299.355 251.333 298.917 251.333 C 298.238 251.333 297.718 251.547 297.355 251.973 C 297 252.403 296.824 253.09 296.824 254.036 C 296.824 254.985 296.988 255.672 297.324 256.098 C 297.656 256.528 298.152 256.739 298.808 256.739 C 299.371 256.739 299.785 256.614 300.058 256.364 C 300.328 256.106 300.464 255.723 300.464 255.223 L 300.464 254.879 L 298.605 254.879 L 298.605 253.629 L 302.011 253.629 L 302.011 257.958 L 300.527 257.958 L 300.527 256.911 L 300.417 256.895 C 300.25 257.27 300 257.563 299.667 257.77 C 299.343 257.965 298.925 258.067 298.417 258.067" fill="black"/>
                  </g>
                </g>
              </g>
            </g>
          </g>
          <g id="Group_1893">
            <title>Group_1193</title>
            <g id="Group_1894">
              <title>Group_1194</title>
              <g id="Group_1895">
                <title>Group_1195</title>
                <g id="Group_1896">
                  <title>Graphic_1196</title>
                  <g id="Graphic_1897">
                    <path d="M 303.649 257.958 L 303.649 252.036 L 305.087 252.036 L 305.087 252.911 L 305.196 252.942 C 305.341 252.61 305.528 252.364 305.759 252.208 C 305.997 252.051 306.282 251.973 306.618 251.973 C 306.95 251.973 307.204 252.032 307.384 252.145 L 307.134 253.442 L 307.024 253.458 C 306.919 253.419 306.821 253.391 306.728 253.379 C 306.642 253.36 306.54 253.348 306.415 253.348 C 305.997 253.348 305.681 253.497 305.462 253.786 C 305.243 254.079 305.134 254.547 305.134 255.192 L 305.134 257.958 L 303.649 257.958" fill="black"/>
                  </g>
                </g>
              </g>
            </g>
          </g>
          <g id="Group_1891">
            <title>Graphic_1192</title>
            <g id="Graphic_1892">
              <line x1="233.909" y1="288.438" x2="363.467" y2="288.438" stroke="black" stroke-linecap="butt" stroke-linejoin="round" stroke-width="1.5"/>
            </g>
          </g>
          <g id="Group_1889">
            <title>Graphic_1191</title>
            <g id="Graphic_1890">
              <line x1="319.921" y1="355.825" x2="406.987" y2="355.825" stroke="black" stroke-linecap="butt" stroke-linejoin="round" stroke-width="1.5"/>
            </g>
          </g>
          <g id="Group_1887">
            <title>Graphic_1190</title>
            <g id="Graphic_1888">
              <line x1="319.921" y1="371.68" x2="319.921" y2="355.028" stroke="black" stroke-linecap="butt" stroke-linejoin="round" stroke-width="1.5"/>
            </g>
          </g>
          <g id="Group_1885">
            <title>Graphic_1189</title>
            <g id="Graphic_1886">
              <line x1="407.362" y1="371.684" x2="407.362" y2="355.032" stroke="black" stroke-linecap="butt" stroke-linejoin="round" stroke-width="1.5"/>
            </g>
          </g>
          <g id="Group_1883">
            <title>Graphic_1188</title>
            <g id="Graphic_1884">
              <line x1="363.452" y1="355.821" x2="363.651" y2="338.251" stroke="black" stroke-linecap="butt" stroke-linejoin="round" stroke-width="1.5"/>
            </g>
          </g>
          <g id="Group_1881">
            <title>Graphic_1187</title>
            <g id="Graphic_1882">
              <line x1="363.452" y1="304.317" x2="363.452" y2="287.665" stroke="black" stroke-linecap="butt" stroke-linejoin="round" stroke-width="1.5"/>
            </g>
          </g>
          <g id="Group_1879">
            <title>Graphic_1186</title>
            <g id="Graphic_1880">
              <line x1="295.116" y1="288.063" x2="295.116" y2="271.407" stroke="black" stroke-linecap="butt" stroke-linejoin="round" stroke-width="1.5"/>
            </g>
          </g>
          <g id="Group_1877">
            <title>Graphic_1185</title>
            <g id="Graphic_1878">
              <line x1="233.53" y1="372.075" x2="233.905" y2="287.665" stroke="black" stroke-linecap="butt" stroke-linejoin="round" stroke-width="1.5"/>
            </g>
          </g>
          <g id="Group_1872">
            <title>Group_1177</title>
            <g id="Group_1873">
              <title>Group_1178</title>
              <g id="Group_1874">
                <title>Group_1179</title>
                <g id="Group_1875">
                  <title>Graphic_1180</title>
                  <g id="Graphic_1876">
                    <path d="M 314.215 393.475 L 314.215 385.616 L 315.777 385.616 L 315.777 388.835 L 315.949 388.835 L 318.558 385.616 L 320.152 385.616 L 320.152 385.756 L 317.262 389.335 L 320.449 393.335 L 320.449 393.475 L 318.699 393.475 L 315.949 390.085 L 315.777 390.085 L 315.777 393.475 L 314.215 393.475" fill="black"/>
                  </g>
                </g>
              </g>
            </g>
          </g>
          <g id="Group_1867">
            <title>Group_1173</title>
            <g id="Group_1868">
              <title>Group_1174</title>
              <g id="Group_1869">
                <title>Group_1175</title>
                <g id="Group_1870">
                  <title>Graphic_1176</title>
                  <g id="Graphic_1871">
                    <path d="M 321.31 393.475 L 321.31 387.553 L 322.731 387.553 L 322.731 388.428 L 322.841 388.444 C 323.216 387.78 323.814 387.444 324.638 387.444 C 325.325 387.444 325.825 387.631 326.138 388.006 C 326.458 388.374 326.622 388.913 326.622 389.631 L 326.622 393.475 L 325.138 393.475 L 325.138 389.803 C 325.138 389.409 325.06 389.128 324.903 388.96 C 324.747 388.784 324.497 388.694 324.153 388.694 C 323.724 388.694 323.392 388.835 323.153 389.116 C 322.911 389.389 322.794 389.819 322.794 390.413 L 322.794 393.475 L 321.31 393.475" fill="black"/>
                  </g>
                </g>
              </g>
            </g>
          </g>
          <g id="Group_1845">
            <title>Group_1114</title>
            <g id="Group_1864">
              <title>Group_1127</title>
              <g id="Group_1865">
                <title>Graphic_1128</title>
                <g id="Graphic_1866">
                  <path d="M 282.5092 294.55457 C 283.5092 294.55457 284.3022 294.55057 285.1352 294.82857 C 286.1132 295.15457 286.4012 295.69057 287.1352 296.08557 C 287.6112 296.34257 288.1532 296.47857 288.6332 296.73757 C 290.0902 297.52157 291.4752 298.81357 292.2622 300.27457 C 292.3652 300.46557 292.5342 300.68657 292.5422 301.00457 C 292.2062 301.00457 291.9642 301.16557 291.7802 301.01757 C 291.5272 300.81557 291.0962 300.03757 290.8482 299.73357 C 290.3352 299.10757 287.8432 297.13757 287.0502 297.56457 C 286.8522 297.67157 286.8432 298.02657 287.0112 298.16357 C 287.5732 298.62357 288.9792 298.73757 290.3272 300.38557 C 290.6212 300.74557 291.0562 301.21957 291.1872 301.67557 C 291.2362 301.84757 291.1772 302.02257 291.1872 302.19657 C 291.2012 302.43657 291.2822 302.67057 291.3242 302.90657 C 291.4672 303.72057 291.3372 304.67057 292.3012 304.99157 C 292.9582 305.21057 293.7522 304.76957 294.4112 304.73057 C 294.9602 304.69857 298.5642 305.01657 298.8282 305.35657 C 299.1832 305.81257 296.5512 306.38757 296.0922 306.41157 C 294.1772 306.51257 292.3782 305.98957 290.4902 305.89057 C 289.5952 305.84357 288.6482 305.84357 287.7542 305.89057 C 287.1832 305.92057 286.6342 306.02057 285.8972 306.02057 L 285.8322 305.95557 C 285.8322 305.22257 285.5172 302.76557 285.1742 302.34657 C 284.5042 301.52757 282.2602 301.80757 281.8192 302.62657 C 281.2932 303.60357 282.0532 305.40557 282.0532 306.67257 L 275.0832 308.23557 L 275.0172 308.17057 C 274.8362 307.67657 274.8462 307.14657 274.7762 306.75057 C 274.2422 303.71857 275.0652 301.15157 276.9722 298.82157 C 277.4442 298.24457 278.0382 297.66257 278.7962 297.22557 C 278.9812 296.98257 279.0642 296.72157 279.2002 296.55457 C 279.8922 295.70857 280.7242 295.11257 281.7732 294.76357 C 281.9582 294.70157 282.1682 294.69157 282.5092 294.55457 Z" fill="#00bf63"/>
                </g>
              </g>
            </g>
            <g id="Group_1861">
              <title>Group_1125</title>
              <g id="Group_1862">
                <title>Graphic_1126</title>
                <g id="Graphic_1863">
                  <path d="M 283.9432 302.63357 C 284.2892 302.63357 284.4682 302.76557 284.5682 302.95257 C 284.6762 303.15357 285.1242 305.97957 285.1092 306.24257 C 285.1012 306.37957 285.0672 306.52457 284.9782 306.63357 C 284.7242 306.94357 283.8952 307.01757 283.5192 306.99757 C 283.2652 306.98457 283.0582 306.90557 282.9332 306.67257 C 282.8122 306.44757 282.4642 303.96157 282.4442 303.57757 C 282.4342 303.38057 282.4442 303.15157 282.5742 302.99157 C 282.8312 302.67757 283.4162 302.69857 283.9432 302.63357 Z" fill="#00bf63"/>
                </g>
              </g>
            </g>
            <g id="Group_1858">
              <title>Group_1123</title>
              <g id="Group_1859">
                <title>Graphic_1124</title>
                <g id="Graphic_1860">
                  <path d="M 288.5032 306.60757 C 289.6212 306.60757 292.5592 306.77957 293.5842 307.06257 C 293.8112 307.97157 293.8452 308.74357 293.8452 309.57157 C 293.8452 318.64557 281.4282 321.97057 276.8742 313.51257 C 276.1372 312.14257 275.9292 310.57757 275.9292 308.88757 C 276.7042 308.69357 282.0512 307.43457 282.3012 307.43457 C 282.8282 307.43457 282.8032 308.00557 284.3792 307.72757 C 286.4982 307.35357 284.3842 306.67257 288.5032 306.60757 Z" fill="#00bf63"/>
                </g>
              </g>
            </g>
            <g id="Group_1855">
              <title>Group_1121</title>
              <g id="Group_1856">
                <title>Graphic_1122</title>
                <g id="Graphic_1857">
                  <path d="M 282.1122 354.51557 C 282.4082 354.46357 282.6942 354.29457 283.1612 354.29457 L 283.2262 354.35957 C 284.0872 356.80857 285.1842 359.06657 285.9692 361.42157 C 286.4072 362.73557 287.1852 363.99457 287.4282 365.36957 C 287.8232 367.61057 286.5622 369.68857 284.6402 370.72457 C 284.1552 370.98557 283.6252 370.99757 282.9652 371.16757 L 262.6402 371.16757 C 261.9662 371.16757 261.3352 370.95357 260.8612 370.69857 C 257.0352 368.63757 257.3712 363.59257 260.4252 361.94857 C 261.0272 361.62457 261.6492 361.36457 262.3272 361.24557 C 263.4042 361.05557 273.0052 361.19957 275.0832 361.19957 L 272.4772 354.35957 C 273.0722 354.50857 273.5382 354.75157 274.0472 354.84157 C 275.9062 355.16957 278.5012 355.24857 280.3662 354.91957 C 280.9532 354.81557 281.5242 354.61957 282.1122 354.51557 Z" fill="#00bf63"/>
                </g>
              </g>
            </g>
            <g id="Group_1852">
              <title>Group_1119</title>
              <g id="Group_1853">
                <title>Graphic_1120</title>
                <g id="Graphic_1854">
                  <path d="M 293.1932 301.65557 C 293.4602 301.65557 293.6482 301.68057 293.7412 301.79257 C 293.8892 301.97357 294.1572 303.64057 294.0472 303.84457 C 293.9012 304.11457 292.5712 304.32957 292.3662 304.07957 C 292.1532 303.81957 292.2352 303.35857 292.1582 303.04957 C 292.0812 302.74257 292.0012 302.36357 292.0862 301.91657 Z" fill="#00bf63"/>
                </g>
              </g>
            </g>
            <g id="Group_1849">
              <title>Group_1117</title>
              <g id="Group_1850">
                <title>Graphic_1118</title>
                <g id="Graphic_1851">
                  <path d="M 278.3402 317.94257 C 279.4642 317.94257 280.3562 317.95257 281.3042 318.26857 C 283.8112 319.10357 284.9202 322.44157 284.9202 324.97857 C 283.3162 323.90957 281.5422 321.80857 279.7142 321.48657 C 276.3172 320.88657 273.7542 324.50757 275.3762 327.51857 C 275.5512 327.84557 275.8032 328.25957 276.0922 328.49657 C 276.9252 329.17757 283.0582 333.81257 283.2062 334.13757 C 283.3272 334.40357 282.9142 336.08857 282.8682 336.50957 C 282.6242 338.69957 282.2492 340.84057 282.2492 343.21957 C 283.8542 342.81757 287.8002 341.83957 289.0762 341.41457 C 290.6962 340.87457 292.4272 340.67157 294.0472 340.13157 C 294.3692 340.02357 294.7162 339.99057 295.0372 339.88357 C 296.6302 339.35257 298.5202 338.97957 300.0792 339.81857 C 303.2202 341.50957 302.6762 343.89357 303.1412 346.52857 C 303.4022 348.00957 303.4082 349.53757 303.6692 351.01757 C 303.8562 352.07857 303.8592 353.16157 304.0472 354.22257 C 304.3852 356.13757 304.6902 359.55657 304.9202 361.62357 C 305.1372 363.58257 305.8982 366.80357 304.9522 368.56157 C 303.3432 371.55057 299.3972 372.32157 296.9392 369.86457 C 296.6772 369.60157 296.4072 369.34157 296.2292 369.01057 C 295.9122 368.42157 295.6242 367.79557 295.5062 367.12857 C 295.3172 366.05857 295.3492 364.95757 295.1612 363.89057 C 294.9262 362.56057 294.8022 361.18457 294.6532 359.83857 C 294.4622 358.12057 294.3342 356.36357 294.0342 354.65857 C 293.9372 354.10957 293.9752 353.54257 293.8772 352.99157 C 293.7882 352.48657 293.5842 351.27657 293.5842 350.64557 C 292.8772 350.64557 292.2532 350.92957 291.6952 351.06957 C 289.5612 351.60257 286.1422 352.39057 284.1642 353.04957 C 283.7732 353.18057 283.3462 353.20557 282.9522 353.33657 C 282.2362 353.57557 281.4292 353.80457 280.6852 353.93557 C 279.5822 354.13057 278.4502 354.16357 277.3302 354.16357 C 274.7302 354.16357 271.8922 353.80757 270.1322 351.65557 C 268.2622 349.37157 268.0012 346.48557 267.8512 343.64257 C 267.8072 342.79457 267.7012 341.94957 267.6562 341.10157 C 267.6082 340.18557 267.6082 339.21657 267.6562 338.30057 C 267.6752 337.92957 267.7672 337.56457 267.7862 337.19357 C 267.9982 333.17057 268.9802 329.26057 270.2492 325.45357 C 271.2922 322.32357 272.7232 320.31357 275.6492 318.73757 C 276.3942 318.33657 277.3222 318.00757 278.3402 317.94257 Z" fill="#00bf63"/>
                </g>
              </g>
            </g>
            <g id="Group_1846">
              <title>Group_1115</title>
              <g id="Group_1847">
                <title>Graphic_1116</title>
                <g id="Graphic_1848">
                  <path d="M 294.6922 319.63657 C 295.7832 319.63657 302.3112 320.66057 303.6302 320.89357 C 304.4062 321.03057 306.9212 321.21257 307.4542 321.49957 C 307.9992 321.79357 309.9582 323.19957 310.4772 323.62357 C 310.5572 323.68957 310.6222 323.78257 310.6132 323.89057 C 310.6072 323.97857 310.5492 324.06957 310.4702 324.11157 C 310.0342 324.34657 307.0822 325.34657 306.6462 325.36957 C 306.1012 325.39757 305.4572 325.23057 304.7892 325.10857 C 304.7892 325.98757 304.7332 326.66057 304.3722 327.33057 C 304.2502 327.55857 304.0452 327.87657 303.8452 328.04057 C 302.4492 329.18257 299.8852 330.65857 298.2812 331.72757 C 296.8132 332.70657 292.1812 335.86357 290.9592 336.52257 C 290.5832 336.72457 290.1372 336.87757 289.7082 336.90057 C 289.0552 336.93457 288.4492 336.83357 287.8712 336.52257 C 287.1182 336.11657 279.8432 330.32757 278.6722 329.36957 C 277.5392 328.44257 276.1242 327.71757 275.8452 326.13757 C 275.4562 323.93357 277.3642 322.02157 279.5712 322.41157 C 279.9442 322.47757 280.2842 322.62557 280.6132 322.80257 C 281.7792 323.43057 289.0702 329.57857 289.5452 329.68857 C 289.8302 329.75457 291.3952 328.58757 291.7282 328.36557 C 293.5252 327.16757 296.3492 325.49457 298.0792 324.26157 L 298.0792 324.13157 C 297.1952 323.75457 294.1092 324.05657 293.9292 323.03657 C 293.8382 322.51957 294.0842 321.68557 294.1442 321.14157 C 294.2002 320.64457 294.3012 320.15657 294.6922 319.63657 Z M 294.9522 320.09257 C 294.6462 320.57457 294.2872 322.57357 294.4112 322.94557 C 294.4572 323.08057 294.5792 323.16057 294.8222 323.21957 L 294.8872 323.15457 L 295.2782 320.09257 Z M 295.6042 320.15757 L 295.1482 323.28457 C 295.5732 323.18857 295.9082 320.80257 295.8842 320.44457 C 295.8772 320.34557 295.8222 320.20757 295.6042 320.15757 Z M 297.0372 320.41757 C 297.0182 320.69157 297.0712 320.79157 297.1802 320.82857 C 298.0202 321.10857 302.8202 321.52957 303.8452 321.78657 C 304.2102 321.87757 305.6512 322.21357 305.8322 321.72157 L 305.7672 321.65557 Z M 307.0042 321.85157 C 306.7712 322.61357 307.1842 322.47457 307.3302 322.95857 L 306.8092 323.02357 C 306.5942 323.42257 306.7842 323.83157 307.2002 323.93557 C 306.9622 324.15257 306.1562 324.46157 306.6072 324.82157 C 306.8092 324.98357 307.2362 324.73357 307.4412 324.66557 C 308.2972 324.38057 309.1912 324.40957 309.1222 323.37557 C 309.1042 323.10857 307.4472 322.00757 307.0042 321.85157 Z" fill="#00bf63"/>
                </g>
              </g>
            </g>
          </g>
          <g id="Graphic_1844">
            <rect x="289.011" y="371.9881" width="64.8" height="34.6" stroke="black" stroke-linecap="round" stroke-linejoin="round" stroke-width="1.5"/>
          </g>
        </g>
      </g>
    </g>
  </g>
</svg>
